HIERARCHY
ROOT hip
{
  OFFSET 0 0 0
  CHANNELS 6 Xposition Yposition Zposition Zrotation Yrotation Xrotation
  JOINT abdomen
  {
    OFFSET 0 20.6881 -0.73152
    CHANNELS 3 Zrotation Xrotation Yrotation
    JOINT chest
    {
      OFFSET 0 11.7043 -0.48768
      CHANNELS 3 Zrotation Xrotation Yrotation
      JOINT neck
      {
        OFFSET 0 22.1894 -2.19456
        CHANNELS 3 Zrotation Xrotation Yrotation
        JOINT head
        {
          OFFSET -0.24384 7.07133 1.2192
          CHANNELS 3 Zrotation Xrotation Yrotation
          JOINT leftEye
          {
            OFFSET 4.14528 8.04674 8.04672
            CHANNELS 3 Zrotation Xrotation Yrotation
            End Site
            {
              OFFSET 1 0 0
            }
          }
          JOINT rightEye
          {
            OFFSET -3.6576 8.04674 8.04672
            CHANNELS 3 Zrotation Xrotation Yrotation
            End Site
            {
              OFFSET 1 0 0
            }
          }
        }
      }
      JOINT rCollar
      {
        OFFSET -2.68224 19.2634 -4.8768
        CHANNELS 3 Zrotation Xrotation Yrotation
        JOINT rShldr
        {
          OFFSET -8.77824 -1.95073 1.46304
          CHANNELS 3 Zrotation Xrotation Yrotation
          JOINT rForeArm
          {
            OFFSET -28.1742 -1.7115 0.48768
            CHANNELS 3 Zrotation Xrotation Yrotation
            JOINT rHand
            {
              OFFSET -22.5879 0.773209 7.07136
              CHANNELS 3 Zrotation Xrotation Yrotation
              JOINT rThumb1
              {
                OFFSET -1.2192 -0.487915 3.41376
                CHANNELS 3 Zrotation Xrotation Yrotation
                JOINT rThumb2
                {
                  OFFSET -3.37035 -0.52449 3.41376
                  CHANNELS 3 Zrotation Xrotation Yrotation
                  End Site
                  {
                    OFFSET -1.78271 -1.18214 1.43049
                  }
                }
              }
              JOINT rIndex1
              {
                OFFSET -7.75947 0.938293 5.60832
                CHANNELS 3 Zrotation Xrotation Yrotation
                JOINT rIndex2
                {
                  OFFSET -2.54057 -0.884171 1.56538
                  CHANNELS 3 Zrotation Xrotation Yrotation
                  End Site
                  {
                    OFFSET -1.62519 -0.234802 1.16502
                  }
                }
              }
              JOINT rMid1
              {
                OFFSET -8.24714 1.18213 3.41376
                CHANNELS 3 Zrotation Xrotation Yrotation
                JOINT rMid2
                {
                  OFFSET -3.10165 -0.590103 1.0647
                  CHANNELS 3 Zrotation Xrotation Yrotation
                  End Site
                  {
                    OFFSET -2.48547 -0.328903 0.83742
                  }
                }
              }
              JOINT rRing1
              {
                OFFSET -8.82822 0.546677 1.51678
                CHANNELS 3 Zrotation Xrotation Yrotation
                JOINT rRing2
                {
                  OFFSET -2.60934 -0.819778 -0.0198488
                  CHANNELS 3 Zrotation Xrotation Yrotation
                  End Site
                  {
                    OFFSET -2.33842 -0.294052 0.168128
                  }
                }
              }
              JOINT rPinky1
              {
                OFFSET -8.27202 -0.0477905 -0.4584
                CHANNELS 3 Zrotation Xrotation Yrotation
                JOINT rPinky2
                {
                  OFFSET -1.82734 -0.647385 -0.700984
                  CHANNELS 3 Zrotation Xrotation Yrotation
                  End Site
                  {
                    OFFSET -1.69225 -0.51767 -0.607171
                  }
                }
              }
            }
          }
        }
      }
      JOINT lCollar
      {
        OFFSET 2.68224 19.2634 -4.8768
        CHANNELS 3 Zrotation Xrotation Yrotation
        JOINT lShldr
        {
          OFFSET 8.77824 -1.95073 1.46304
          CHANNELS 3 Zrotation Xrotation Yrotation
          JOINT lForeArm
          {
            OFFSET 28.1742 -1.7115 0.48768
            CHANNELS 3 Zrotation Xrotation Yrotation
            JOINT lHand
            {
              OFFSET 22.5879 0.773209 7.07136
              CHANNELS 3 Zrotation Xrotation Yrotation
              JOINT lThumb1
              {
                OFFSET 1.2192 -0.487915 3.41376
                CHANNELS 3 Zrotation Xrotation Yrotation
                JOINT lThumb2
                {
                  OFFSET 3.37035 -0.52449 3.41376
                  CHANNELS 3 Zrotation Xrotation Yrotation
                  End Site
                  {
                    OFFSET 1.78271 -1.18214 1.43049
                  }
                }
              }
              JOINT lIndex1
              {
                OFFSET 7.75947 0.938293 5.60832
                CHANNELS 3 Zrotation Xrotation Yrotation
                JOINT lIndex2
                {
                  OFFSET 2.54057 -0.884171 1.56538
                  CHANNELS 3 Zrotation Xrotation Yrotation
                  End Site
                  {
                    OFFSET 1.62519 -0.234802 1.16502
                  }
                }
              }
              JOINT lMid1
              {
                OFFSET 8.24714 1.18213 3.41376
                CHANNELS 3 Zrotation Xrotation Yrotation
                JOINT lMid2
                {
                  OFFSET 3.10165 -0.590103 1.0647
                  CHANNELS 3 Zrotation Xrotation Yrotation
                  End Site
                  {
                    OFFSET 2.48547 -0.328903 0.83742
                  }
                }
              }
              JOINT lRing1
              {
                OFFSET 8.82822 0.546677 1.51678
                CHANNELS 3 Zrotation Xrotation Yrotation
                JOINT lRing2
                {
                  OFFSET 2.60934 -0.819778 -0.0198488
                  CHANNELS 3 Zrotation Xrotation Yrotation
                  End Site
                  {
                    OFFSET 2.33842 -0.294052 0.168128
                  }
                }
              }
              JOINT lPinky1
              {
                OFFSET 8.27202 -0.0477905 -0.4584
                CHANNELS 3 Zrotation Xrotation Yrotation
                JOINT lPinky2
                {
                  OFFSET 1.82734 -0.647385 -0.700984
                  CHANNELS 3 Zrotation Xrotation Yrotation
                  End Site
                  {
                    OFFSET 1.69225 -0.51767 -0.607171
                  }
                }
              }
            }
          }
        }
      }
    }
  }
  JOINT rButtock
  {
    OFFSET -8.77824 4.35084 1.2192
    CHANNELS 3 Zrotation Xrotation Yrotation
    JOINT rThigh
    {
      OFFSET 0 -1.70687 -2.19456
      CHANNELS 3 Zrotation Xrotation Yrotation
      JOINT rShin
      {
        OFFSET 0 -36.8199 0.73152
        CHANNELS 3 Zrotation Xrotation Yrotation
        JOINT rFoot
        {
          OFFSET 0.73152 -45.1104 -5.12064
          CHANNELS 3 Zrotation Xrotation Yrotation
          End Site
          {
            OFFSET -1.1221 -3.69964 12.103
          }
        }
      }
    }
  }
  JOINT lButtock
  {
    OFFSET 8.77824 4.35084 1.2192
    CHANNELS 3 Zrotation Xrotation Yrotation
    JOINT lThigh
    {
      OFFSET 0 -1.70687 -2.19456
      CHANNELS 3 Zrotation Xrotation Yrotation
      JOINT lShin
      {
        OFFSET 0 -36.8199 0.73152
        CHANNELS 3 Zrotation Xrotation Yrotation
        JOINT lFoot
        {
          OFFSET -0.73152 -45.1104 -5.12064
          CHANNELS 3 Zrotation Xrotation Yrotation
          End Site
          {
            OFFSET 1.1221 -3.69964 12.103
          }
        }
      }
    }
  }
}
MOTION
Frames:	5
Frame Time:	0.03333
0.0 0.0 0.0 0.0 0.0 0.0 0.0 0.0 0.0 0.0 0.0 0.0 0.0 0.0 0.0 0.0 0.0 0.0 0.0 0.0 0.0 0.0 0.0 0.0 0.0 0.0 0.0 0.0 0.0 0.0 0.0 0.0 0.0 0.0 0.0 0.0 0.0 0.0 0.0 0.0 0.0 0.0 0.0 0.0 0.0 0.0 0.0 0.0 0.0 0.0 0.0 0.0 0.0 0.0 0.0 0.0 0.0 0.0 0.0 0.0 0.0 0.0 0.0 0.0 0.0 0.0 0.0 0.0 0.0 0.0 0.0 0.0 0.0 0.0 0.0 0.0 0.0 0.0 0.0 0.0 0.0 0.0 0.0 0.0 0.0 0.0 0.0 0.0 0.0 0.0 0.0 0.0 0.0 0.0 0.0 0.0 0.0 0.0 0.0 0.0 0.0 0.0 0.0 0.0 0.0 0.0 0.0 0.0 0.0 0.0 0.0 0.0 0.0 0.0 0.0 0.0 0.0 0.0 0.0 0.0 0.0 0.0 0.0 0.0 0.0 0.0 0.0 0.0 0.0 0.0 0.0 0.0
0.1077 50.399899999999995 -0.0275 -175.976902 67.440296 -171.20131 0.61126 16.930372 170.221908 -7.022229 7.381565 -179.386804 7.941995 27.023741 72.195898 -40.161714 -3.143406 -128.397548 -0.000745 -0.0 0.001784 -0.000628 0.0 -0.002074 -152.219486 13.728891 157.66539 54.390701 -72.182148 77.38607 13.635092 58.943358 -143.157106 -177.746837 -1.478184 142.93173 142.067029 -43.192464 73.770611 -25.449798 -37.371661 -18.980526 -8.513779 12.43263 5.410813 141.182764 -57.907343 81.070322 -174.668972 -47.95135 144.480243 5.068938 -5.903817 -0.37101 -0.975461 19.793028 6.462066 -153.909961 28.196888 167.729781 22.611823 74.492931 12.509465 0.117846 -3.340156 -1.901942 16.624949 46.548265 -18.599531 100.544026 0.554742 -107.246287 -23.867068 13.92446 153.336331 171.584141 17.192877 -140.570237 -178.88959 -18.507344 -89.085945 168.269204 -4.893145 -93.488929 133.039613 12.520968 -111.26289 5.194753 23.140601 2.792397 171.260771 -39.457237 -145.24833 -14.704539 -33.934566 0.742561 0.00326 -0.382267 0.120292 -11.008838 -10.850035 1.37413 -29.834244 82.197652 -8.014662 8.714457 -21.341725 9.756243 0.000348 0.00024 0.0002 -55.315434 -57.646984 18.351725 100.666676 34.720429 144.969757 -149.041706 46.74837 -112.496062 7.3e-05 0.00024 -1.4e-05 63.37353 -40.47336 -70.449548 -95.1804 -32.393965 -8.658117 121.227985 -55.347833 -168.353717
0.1532 50.255799999999994 -0.0067 -175.77363 67.429824 -170.858625 1.402493 21.490189 -1.535142 5.526209 -13.049541 -7.387745 4.79073 23.813926 50.062368 -32.551597 -18.038326 -109.17444 0.001011 -0.0 -0.001293 -0.004714 0.0 -0.001523 -23.791814 53.958996 26.035644 0.184271 34.377223 49.944528 62.522728 -2.759714 -163.595281 -140.764764 58.249202 116.333155 -176.765076 -14.374815 89.675804 -171.605967 -8.323343 93.103628 -153.922658 -21.942317 121.862337 34.78161 -42.976501 -6.663695 -81.845358 61.136311 73.575428 -138.47052 44.029685 126.71103 -0.803587 18.179761 5.89756 7.262731 18.00616 2.247018 -65.016723 -51.658292 -63.589947 -162.789157 63.295241 -148.265985 156.306945 -9.102453 -162.988909 -138.143351 -12.043811 156.187019 122.162813 -39.494406 -62.980035 -158.183591 -57.327552 -134.455377 32.429257 26.018216 -12.331027 115.838912 -15.907137 -95.180893 -126.887648 -75.706984 -74.266708 2.812129 29.061852 -2.257012 33.238406 50.106565 -27.230533 156.820499 12.987454 -140.426593 144.812067 -9.228635 176.196687 -12.590199 28.020354 5.749087 -14.498245 50.280955 -11.644288 11.928951 -27.106109 12.568422 -179.995115 75.749698 -0.004367 155.856675 4.558046 -82.667009 -89.738156 -0.614091 123.668049 88.232237 -47.801806 13.629681 179.997714 75.748652 0.00221 -138.60145 10.318809 89.005368 88.825285 -17.882721 -70.230754 86.393271 -23.092046 0.953154
0.1973 50.12140000000001 0.0101 -175.204631 67.199287 -170.197776 2.273255 21.237376 -12.381205 7.304581 -11.848275 3.358931 8.546316 29.293448 87.30812 -42.404592 6.979488 -138.264464 -0.000429 -0.0 0.000466 -0.00028 0.0 -0.003265 -158.487917 -30.326308 166.969776 -22.715948 13.211153 -6.096089 -178.953187 67.398388 -81.473717 -9.53712 9.57807 -1.277945 2.357389 -2.339284 -0.31504 -26.294835 22.366783 21.988539 1.734609 -2.867155 -0.950583 8.662176 4.676559 0.208295 -2.847943 7.903029 1.710476 0.749673 7.218295 1.092941 -0.018252 -1.559706 -0.48953 -155.502836 -4.456469 172.395762 -174.644701 83.983548 -142.849128 -7.603396 -19.291984 -8.930075 0.475377 2.759696 -0.625643 -80.153173 0.840372 -26.870969 -137.872251 6.660417 -12.863574 148.172923 53.43153 -122.965319 165.782619 -3.453366 -89.698019 -59.740321 -65.274048 -46.246552 14.784458 19.796442 -9.979356 88.729918 47.48737 -67.632766 156.756319 4.813323 -141.118214 -161.582543 -67.841723 -127.728329 145.11915 0.286212 179.219197 -4.044354 -39.279467 16.384714 -22.001436 73.356668 -12.714316 147.59059 9.104964 142.246794 -179.996513 75.750135 -0.001906 155.715943 4.104622 -98.729691 -94.060553 -12.960116 167.323746 -158.741406 35.779973 61.937857 -0.000682 -0.000493 -0.001336 61.177419 -42.257652 124.35364 95.694985 2.776041 2.320371 -176.121777 -71.649492 96.445953
0.2863 49.9747 0.0531 -174.669551 66.903111 -169.550067 1.747173 16.388462 171.799359 -6.400819 7.548019 178.82982 3.85761 39.045202 154.526835 -23.932877 47.580867 164.282105 0.000436 -0.0 -0.000274 0.000436 -0.0 -0.000274 -155.557762 -3.865199 161.912936 156.242739 -19.392552 170.134735 -23.302016 -55.014245 73.400805 -3.730367 -8.115752 -2.687933 14.371977 -14.291902 -0.415759 -101.452418 21.860635 89.432966 -147.375781 -9.872945 119.617799 85.66124 -69.654728 34.264315 177.69059 -61.266942 140.739631 -170.100652 -24.837213 143.99616 0.003865 2.133092 0.667742 9.573485 7.373075 0.90378 20.441083 69.889912 13.038669 -4.883997 -14.673367 -6.184232 13.877875 42.643358 -15.711253 107.392391 -3.28181 -112.652374 -6.058795 21.111273 145.359914 178.718818 -4.140838 -143.130023 -83.058054 -50.234456 -33.479394 164.546449 -65.908807 -143.660553 -139.750598 -74.387137 -85.641367 -4.1204 20.326803 2.216979 176.367404 -51.565359 -143.862974 -172.749937 -58.769067 -136.637481 145.118838 0.224002 179.198667 -9.870006 -3.817849 9.488654 132.401337 -18.250658 129.920336 26.048443 -41.094502 27.846237 -179.998739 75.751273 -1.1e-05 155.721476 4.206517 -93.0683 -92.800743 -7.691572 155.278851 -64.589729 36.676075 -29.919865 6.8e-05 -0.000219 0.000464 64.301151 -42.246082 -105.963402 -109.339285 -66.328805 -41.150233 -145.704367 50.387408 -128.400319
